<?xml version="1.0" encoding="UTF-8"?>
<svg id="_レイヤー_1" data-name="レイヤー_1" xmlns="http://www.w3.org/2000/svg" xmlns:xlink="http://www.w3.org/1999/xlink" version="1.1" viewBox="0 0 841.89 595.28">
  <!-- Generator: Adobe Illustrator 29.6.1, SVG Export Plug-In . SVG Version: 2.1.1 Build 9)  -->
  <defs>
    <clipPath id="clippath">
      <polyline points="-626.8 1438.69 3060.82 1438.69 3060.82 -690.55 -626.8 -690.55 -626.8 1438.69" fill="none"/>
    </clipPath>
    <clipPath id="clippath-1">
      <rect x="8.5" y="80.71" width="824.88" height="433.85" fill="none"/>
    </clipPath>
  </defs>
  <g clip-path="url(#clippath)">
    <g clip-path="url(#clippath-1)">
      <polyline points="254.92 187.37 179.59 144.12 9.61 242.03 479.3 513.73 832.86 309.48 706.93 236.86 438.23 81.57 195.91 221.36" fill="none" stroke="#000" stroke-linecap="round" stroke-linejoin="round" stroke-width="1.63"/>
      <line x1="565.78" y1="463.69" x2="95.82" y2="192.26" fill="none" stroke="#000" stroke-linecap="round" stroke-linejoin="round" stroke-width="1.63"/>
      <line x1="251.66" y1="282.28" x2="165.45" y2="332.05" fill="none" stroke="#000" stroke-linecap="round" stroke-linejoin="round" stroke-width="1.63"/>
      <line x1="173.6" y1="237.14" x2="87.39" y2="286.91" fill="none" stroke="#000" stroke-linecap="round" stroke-linejoin="round" stroke-width="1.63"/>
      <polyline points="121.39 178.39 273.15 266.24 279.67 262.43 223.1 229.79 222.83 224.35 248.4 209.67 258.46 209.67" fill="none" stroke="#000" stroke-linecap="round" stroke-linejoin="round" stroke-width="1.63"/>
      <polyline points="590.8 449.27 511.66 403.58 517.92 400.04 575.03 432.95 584.28 432.95 609.84 418.27 609.84 412.56" fill="none" stroke="#000" stroke-linecap="round" stroke-linejoin="round" stroke-width="1.63"/>
      <polyline points="237.52 197.43 336.51 254.54 356.64 242.85 338.15 232.24 318.02 243.94" fill="none" stroke="#000" stroke-linecap="round" stroke-linejoin="round" stroke-width="1.63"/>
      <polyline points="255.47 208.04 279.4 194.16 261.18 183.83" fill="none" stroke="#000" stroke-linecap="round" stroke-linejoin="round" stroke-width="1.63"/>
      <line x1="269.61" y1="199.88" x2="251.66" y2="189.27" fill="none" stroke="#000" stroke-linecap="round" stroke-linejoin="round" stroke-width="1.63"/>
      <line x1="332.16" y1="235.78" x2="350.66" y2="246.38" fill="none" stroke="#000" stroke-linecap="round" stroke-linejoin="round" stroke-width="1.63"/>
      <polyline points="632.14 425.34 531.51 367.14 530.15 367.95" fill="none" stroke="#000" stroke-linecap="round" stroke-linejoin="round" stroke-width="1.63"/>
      <polyline points="370.78 322.53 320.47 293.43 377.85 260.25 470.87 313.83" fill="none" stroke="#000" stroke-linecap="round" stroke-linejoin="round" stroke-width="1.63"/>
      <polyline points="487.73 349.73 510.57 336.68 483.92 321.45 426.54 354.63" fill="none" stroke="#000" stroke-linecap="round" stroke-linejoin="round" stroke-width="1.63"/>
      <polyline points="482.29 360.07 493.98 353.27 461.35 334.5 426.54 354.63 459.17 373.39 470.59 366.86" fill="none" stroke="#000" stroke-linecap="round" stroke-linejoin="round" stroke-width="1.63"/>
      <polyline points="347.39 293.43 333.79 285.55 320.47 293.43 333.79 301.05 347.39 293.43" fill="none" stroke="#000" stroke-linecap="round" stroke-linejoin="round" stroke-width="1.63"/>
      <polyline points="365.34 308.39 380.3 316.82 370.78 322.53 355.82 313.83 365.34 308.39" fill="none" stroke="#000" stroke-linecap="round" stroke-linejoin="round" stroke-width="1.63"/>
      <line x1="355.82" y1="313.83" x2="400.15" y2="288.27" fill="none" stroke="#000" stroke-linecap="round" stroke-linejoin="round" stroke-width="1.63"/>
      <line x1="442.04" y1="297.24" x2="384.65" y2="330.42" fill="none" stroke="#000" stroke-linecap="round" stroke-linejoin="round" stroke-width="1.63"/>
      <polyline points="460.8 308.12 438.23 321.17 446.93 326.34 412.39 346.47 399.07 338.85" fill="none" stroke="#000" stroke-linecap="round" stroke-linejoin="round" stroke-width="1.63"/>
      <line x1="412.66" y1="314.1" x2="440.41" y2="330.15" fill="none" stroke="#000" stroke-linecap="round" stroke-linejoin="round" stroke-width="1.63"/>
      <line x1="408.86" y1="316.55" x2="393.08" y2="307.58" fill="none" stroke="#000" stroke-linecap="round" stroke-linejoin="round" stroke-width="1.63"/>
      <line x1="336.51" y1="254.54" x2="334.88" y2="255.36" fill="none" stroke="#000" stroke-linecap="round" stroke-linejoin="round" stroke-width="1.63"/>
      <line x1="332.43" y1="256.99" x2="297.35" y2="277.12" fill="none" stroke="#000" stroke-linecap="round" stroke-linejoin="round" stroke-width="1.63"/>
      <polyline points="296.26 277.66 294.9 278.48 293 277.66" fill="none" stroke="#000" stroke-linecap="round" stroke-linejoin="round" stroke-width="1.63"/>
      <line x1="290.55" y1="276.03" x2="276.14" y2="267.87" fill="none" stroke="#000" stroke-linecap="round" stroke-linejoin="round" stroke-width="1.63"/>
      <line x1="274.78" y1="267.05" x2="273.15" y2="266.24" fill="none" stroke="#000" stroke-linecap="round" stroke-linejoin="round" stroke-width="1.63"/>
      <polyline points="206.51 200.96 174.96 182.74 151.85 196.07" fill="none" stroke="#000" stroke-linecap="round" stroke-linejoin="round" stroke-width="1.63"/>
      <line x1="186.39" y1="189.27" x2="163.27" y2="202.6" fill="none" stroke="#000" stroke-linecap="round" stroke-linejoin="round" stroke-width="1.63"/>
      <line x1="162.18" y1="190.09" x2="173.6" y2="196.61" fill="none" stroke="#000" stroke-linecap="round" stroke-linejoin="round" stroke-width="1.63"/>
      <line x1="188.02" y1="205.04" x2="177.68" y2="211.03" fill="none" stroke="#000" stroke-linecap="round" stroke-linejoin="round" stroke-width="1.63"/>
      <polyline points="569.86 366.05 551.64 355.71 531.51 367.14 549.46 377.74 569.86 366.05" fill="none" stroke="#000" stroke-linecap="round" stroke-linejoin="round" stroke-width="1.63"/>
      <line x1="545.66" y1="358.98" x2="563.88" y2="369.58" fill="none" stroke="#000" stroke-linecap="round" stroke-linejoin="round" stroke-width="1.63"/>
      <polyline points="656.35 411.47 636.22 399.77 612.02 413.64 632.14 425.34 656.35 411.47" fill="none" stroke="#000" stroke-linecap="round" stroke-linejoin="round" stroke-width="1.63"/>
      <line x1="626.16" y1="405.48" x2="646.29" y2="417.18" fill="none" stroke="#000" stroke-linecap="round" stroke-linejoin="round" stroke-width="1.63"/>
      <line x1="527.71" y1="369.58" x2="492.35" y2="389.71" fill="none" stroke="#000" stroke-linecap="round" stroke-linejoin="round" stroke-width="1.63"/>
      <polyline points="491.26 390.53 489.9 391.34 491.26 392.16" fill="none" stroke="#000" stroke-linecap="round" stroke-linejoin="round" stroke-width="1.63"/>
      <line x1="493.98" y1="393.52" x2="508.67" y2="401.95" fill="none" stroke="#000" stroke-linecap="round" stroke-linejoin="round" stroke-width="1.63"/>
      <line x1="510.3" y1="402.76" x2="511.66" y2="403.58" fill="none" stroke="#000" stroke-linecap="round" stroke-linejoin="round" stroke-width="1.63"/>
      <line x1="672.67" y1="401.95" x2="277.77" y2="174.04" fill="none" stroke="#000" stroke-linecap="round" stroke-linejoin="round" stroke-width="1.63"/>
      <line x1="338.15" y1="232.24" x2="358.27" y2="220.55" fill="none" stroke="#000" stroke-linecap="round" stroke-linejoin="round" stroke-width="1.63"/>
      <line x1="569.86" y1="366.05" x2="589.99" y2="354.35" fill="none" stroke="#000" stroke-linecap="round" stroke-linejoin="round" stroke-width="1.63"/>
      <line x1="310.13" y1="239.58" x2="275.05" y2="259.71" fill="none" stroke="#000" stroke-linecap="round" stroke-linejoin="round" stroke-width="1.63"/>
      <line x1="306.6" y1="237.41" x2="271.51" y2="257.81" fill="none" stroke="#000" stroke-linecap="round" stroke-linejoin="round" stroke-width="1.63"/>
      <line x1="303.33" y1="235.5" x2="268.25" y2="255.9" fill="none" stroke="#000" stroke-linecap="round" stroke-linejoin="round" stroke-width="1.63"/>
      <line x1="300.07" y1="233.87" x2="264.99" y2="254" fill="none" stroke="#000" stroke-linecap="round" stroke-linejoin="round" stroke-width="1.63"/>
      <line x1="297.08" y1="231.97" x2="261.99" y2="252.09" fill="none" stroke="#000" stroke-linecap="round" stroke-linejoin="round" stroke-width="1.63"/>
      <polyline points="293.54 229.79 258.46 250.19 268.25 237.14" fill="none" stroke="#000" stroke-linecap="round" stroke-linejoin="round" stroke-width="1.63"/>
      <line x1="270.7" y1="216.74" x2="235.61" y2="237.14" fill="none" stroke="#000" stroke-linecap="round" stroke-linejoin="round" stroke-width="1.63"/>
      <line x1="290.28" y1="227.89" x2="255.2" y2="248.29" fill="none" stroke="#000" stroke-linecap="round" stroke-linejoin="round" stroke-width="1.63"/>
      <line x1="287.02" y1="226.26" x2="251.93" y2="246.38" fill="none" stroke="#000" stroke-linecap="round" stroke-linejoin="round" stroke-width="1.63"/>
      <line x1="283.75" y1="224.35" x2="248.67" y2="244.48" fill="none" stroke="#000" stroke-linecap="round" stroke-linejoin="round" stroke-width="1.63"/>
      <line x1="280.22" y1="222.18" x2="245.13" y2="242.58" fill="none" stroke="#000" stroke-linecap="round" stroke-linejoin="round" stroke-width="1.63"/>
      <line x1="277.22" y1="220.55" x2="242.14" y2="240.67" fill="none" stroke="#000" stroke-linecap="round" stroke-linejoin="round" stroke-width="1.63"/>
      <line x1="273.96" y1="218.64" x2="238.88" y2="238.77" fill="none" stroke="#000" stroke-linecap="round" stroke-linejoin="round" stroke-width="1.63"/>
      <polyline points="291.91 250.73 250.84 227.07 253.29 225.44 294.63 249.37 291.91 250.73" fill="none" stroke="#000" stroke-linecap="round" stroke-linejoin="round" stroke-width="1.63"/>
      <line x1="258.46" y1="250.19" x2="268.25" y2="237.14" fill="none" stroke="#000" stroke-linecap="round" stroke-linejoin="round" stroke-width="2.45"/>
      <line x1="597.06" y1="405.21" x2="561.98" y2="425.34" fill="none" stroke="#000" stroke-linecap="round" stroke-linejoin="round" stroke-width="1.63"/>
      <line x1="593.8" y1="403.31" x2="558.71" y2="423.71" fill="none" stroke="#000" stroke-linecap="round" stroke-linejoin="round" stroke-width="1.63"/>
      <line x1="590.8" y1="401.4" x2="555.72" y2="421.8" fill="none" stroke="#000" stroke-linecap="round" stroke-linejoin="round" stroke-width="1.63"/>
      <line x1="587.54" y1="399.5" x2="552.46" y2="419.9" fill="none" stroke="#000" stroke-linecap="round" stroke-linejoin="round" stroke-width="1.63"/>
      <line x1="584" y1="397.6" x2="548.92" y2="417.72" fill="none" stroke="#000" stroke-linecap="round" stroke-linejoin="round" stroke-width="1.63"/>
      <polyline points="580.74 395.69 545.66 416.09 555.72 402.76" fill="none" stroke="#000" stroke-linecap="round" stroke-linejoin="round" stroke-width="1.63"/>
      <line x1="557.62" y1="382.37" x2="522.54" y2="402.76" fill="none" stroke="#000" stroke-linecap="round" stroke-linejoin="round" stroke-width="1.63"/>
      <line x1="577.48" y1="393.79" x2="542.39" y2="414.19" fill="none" stroke="#000" stroke-linecap="round" stroke-linejoin="round" stroke-width="1.63"/>
      <line x1="574.49" y1="392.16" x2="539.4" y2="412.28" fill="none" stroke="#000" stroke-linecap="round" stroke-linejoin="round" stroke-width="1.63"/>
      <line x1="570.95" y1="389.98" x2="535.87" y2="410.38" fill="none" stroke="#000" stroke-linecap="round" stroke-linejoin="round" stroke-width="1.63"/>
      <line x1="567.69" y1="388.08" x2="532.6" y2="408.48" fill="none" stroke="#000" stroke-linecap="round" stroke-linejoin="round" stroke-width="1.63"/>
      <line x1="564.42" y1="386.17" x2="529.34" y2="406.57" fill="none" stroke="#000" stroke-linecap="round" stroke-linejoin="round" stroke-width="1.63"/>
      <line x1="561.16" y1="384.54" x2="526.08" y2="404.67" fill="none" stroke="#000" stroke-linecap="round" stroke-linejoin="round" stroke-width="1.63"/>
      <polyline points="579.38 416.63 538.31 392.97 540.76 391.34 581.83 415.27 579.38 416.63" fill="none" stroke="#000" stroke-linecap="round" stroke-linejoin="round" stroke-width="1.63"/>
      <line x1="545.66" y1="416.09" x2="555.72" y2="402.76" fill="none" stroke="#000" stroke-linecap="round" stroke-linejoin="round" stroke-width="2.45"/>
      <line x1="634.05" y1="194.98" x2="474.13" y2="287.45" fill="none" stroke="#000" stroke-linecap="round" stroke-linejoin="round" stroke-width="1.63"/>
      <line x1="302.25" y1="311.66" x2="216.03" y2="361.43" fill="none" stroke="#000" stroke-linecap="round" stroke-linejoin="round" stroke-width="1.63"/>
      <line x1="376.76" y1="354.63" x2="290.55" y2="404.4" fill="none" stroke="#000" stroke-linecap="round" stroke-linejoin="round" stroke-width="1.63"/>
      <line x1="465.15" y1="405.48" x2="378.94" y2="455.25" fill="none" stroke="#000" stroke-linecap="round" stroke-linejoin="round" stroke-width="1.63"/>
      <line x1="515.47" y1="434.58" x2="429.25" y2="484.35" fill="none" stroke="#000" stroke-linecap="round" stroke-linejoin="round" stroke-width="1.63"/>
    </g>
  </g>
</svg>